#!OML:ASF F:\VICON\USERDATA\INSTALL\rory3\rory3.ASF
:FULLY-SPECIFIED
:DEGREES
200
root -0.061320631574408035 17.899908528344728 53.439546380508546 -1.4141598832752296 -3.738052832784873 -4.658065550065116
lfemur -18.647489594929574 -2.996221703551369 -16.522394716913094
ltibia 18.136941427521435
lfoot 8.199396084011468 -8.71593976748311
ltoes -1.5716460052505994
rfemur -10.687726538748047 6.160775156128118 27.188116641736062
rtibia 27.42725580035433
rfoot -5.879546697898723 -3.071040499443206
rtoes 5.303910988034344
lowerback 9.672657144192234 0.7726420070800105 4.1594681825955195
upperback 0.07557175767893905 1.7612383539222836 1.6054479649180255
thorax -5.5074149537075145 0.7853544679606614 -1.2936101747439945
lowerneck -16.078863280822567 -2.7949562501578433 -3.46165562497721
upperneck 22.397729205536322 -3.254382677714234 0.7459162060739861
head 9.600991361678794 -1.659352126562055 0.7978547283376597
lclavicle 1.4524408333327787e-16 2.356460325823555e-16
lhumerus -33.22881985761031 3.7834435133238635 79.30086198518659
lradius 28.9493052179131
lwrist 6.886382556939797
lhand -29.14736472277695 19.226601993673206
lfingers 7.12502
lthumb -2.4117452307104434 49.546813726656644
rclavicle 1.4611760620500518e-16 2.363426754054505e-16
rhumerus -25.78254149631953 -17.00181975511167 -77.37391060221339
rradius 18.63622035796144
rwrist 10.61696117696711
rhand -17.716984656902905 22.534180667014834
rfingers 7.12502
rthumb 7.789334888413037 -7.10322712787173
201
root -0.04343854107760997 17.896339979168715 53.3389699687832 -1.397563636108628 -3.9311706101485995 -4.445303678784871
lfemur -18.376270129373943 -2.8778918661595143 -16.844008135614796
ltibia 18.735571179559482
lfoot 7.830901354340269 -9.161699071305264
ltoes -0.8469837920047025
rfemur -10.121941733334411 6.22476547991514 26.88075420453649
rtibia 28.158350061452783
rfoot -6.179981374812506 -2.207211305657366
rtoes 6.715856333578577
lowerback 9.519409423265026 0.8874462192788419 4.051464932025908
upperback 0.08075338793018107 1.913485526549213 1.5223315489341869
thorax -5.385609748576389 0.8721488108587326 -1.4272104784686577
lowerneck -16.10854008254348 -2.7711005896266863 -3.403463903466883
upperneck 22.38504127879793 -3.222079610822064 0.6719722156218002
head 9.59298713480506 -1.647158785802884 0.7745729860241434
lclavicle 1.4573721622342112e-16 2.3602583892025834e-16
lhumerus -33.534932607904686 4.049420691841584 79.24689575663277
lradius 28.934062084342383
lwrist 6.844534776238625
lhand -29.293902396367397 19.03158721126669
lfingers 7.12502
lthumb -2.563476827083009 49.29023522429446
rclavicle 1.460476526654754e-16 2.362888679101435e-16
rhumerus -25.9604453880916 -17.713573094369224 -76.9924640328482
rradius 18.377817350155066
rwrist 10.803132266013849
rhand -17.771660946163248 22.60281578351063
rfingers 7.12502
rthumb 7.766929592166769 -7.034110165308345
202
root -0.027803833637346564 17.88980892216666 53.269980054664316 -1.3451805061226296 -4.134359290857172 -4.698784115920178
lfemur -18.186706381925028 -2.7406582528042467 -16.722500512805958
ltibia 19.505152705486687
lfoot 7.36346453512544 -9.390974537002215
ltoes -0.6248626729687747
rfemur -9.634904690885488 6.379897262496921 26.984138945572617
rtibia 28.883620028424286
rfoot -6.519650202792921 -1.723414833122332
rtoes 7.540386870886445
lowerback 9.407233657503166 0.9974369751096301 4.2702301583397695
upperback 0.05376969112182242 2.1220688706048145 1.5244193155018215
thorax -5.320655083142281 0.9783915144831926 -1.6492030262329922
lowerneck -16.13703395888029 -2.7514476958501484 -3.358924825614214
upperneck 22.37140504741599 -3.196860730570457 0.5833289864845999
head 9.583594018479223 -1.6391808179822676 0.7413442969563829
lclavicle 1.4568528634723102e-16 2.359846652936042e-16
lhumerus -33.829429383772855 4.374363478156067 79.21947693317871
lradius 28.76174436514748
lwrist 6.399807173853692
lhand -29.357533933357182 18.974359926330823
lfingers 7.12502
lthumb -2.68338310591544 49.06851822590456
rclavicle 1.45610010658461e-16 2.3595233449219317e-16
rhumerus -26.103904707556527 -18.325018698575086 -76.64724279136998
rradius 18.18509615973201
rwrist 10.984131087540508
rhand -17.840036935769483 22.63016439855551
rfingers 7.12502
rthumb 7.745939183991367 -7.057110500126884
203
root -0.010170903301328194 17.879131991643945 53.23206108304007 -1.3096694568919505 -4.241037674623493 -4.579539418288358
lfemur -18.04573790653093 -2.746789716480267 -16.932354408120368
ltibia 20.34836550724879
lfoot 6.71117890418743 -9.330331888254008
ltoes -0.4281920767284131
rfemur -9.488295760830123 6.357918514175658 26.745278407015785
rtibia 30.01768172135811
rfoot -6.83293203461864 -1.4652102163962422
rtoes 8.188926624458569
lowerback 9.317039845568166 1.06983917206818 4.2209837194694675
upperback 0.04384297573547204 2.204704008523402 1.4717910774228282
thorax -5.292347353424456 1.0257855228561088 -1.7568769425614548
lowerneck -16.160163281571613 -2.7298477935515217 -3.306129959099179
upperneck 22.350815794387564 -3.1658559681992324 0.4897543824968318
head 9.57371999544355 -1.6286114569495524 0.7083814425667742
lclavicle 1.4555916291663656e-16 2.3588745800851126e-16
lhumerus -34.018255371163264 4.526972683387712 79.26652569046412
lradius 28.4716764373784
lwrist 5.795360229017387
lhand -29.409877200975966 19.008359741715136
lfingers 7.12502
lthumb -2.7570113186323897 49.069280094002494
rclavicle 1.4620786910626053e-16 2.3641205812810397e-16
rhumerus -26.22372946298412 -18.841166832188776 -76.28455467448363
rradius 18.104121160645043
rwrist 11.187227490339156
rhand -17.927954677945767 22.670046249968998
rfingers 7.12502
rthumb 7.713407839088826 -7.086911306762852
204
root 0.004859970347352138 17.865195550130395 53.24763504208744 -1.2758631595702539 -4.311470003990054 -4.665046253668911
lfemur -17.93736046419403 -2.6745713127557598 -16.992500838643853
ltibia 21.477006554726778
lfoot 6.054029206813094 -8.942833001905985
ltoes -1.0135022662895428
rfemur -9.561279686795492 6.346264611324381 26.655372277944487
rtibia 31.438490120157013
rfoot -6.9394488735211315 -1.3830680850244876
rtoes 8.59137112848056
lowerback 9.270007007839054 1.1404953777729825 4.291358777580825
upperback 0.0394969164878817 2.3048706708256255 1.4543725585693592
thorax -5.287876682609211 1.074173326707968 -1.865791271489429
lowerneck -16.18534422054378 -2.712352094647432 -3.2522256478023195
upperneck 22.33474360462098 -3.1443022068932946 0.402339167273597
head 9.567212810504586 -1.621718395133925 0.676366235545233
lclavicle 1.4558948501712354e-16 2.359130711947401e-16
lhumerus -34.13088618590535 4.640697202365661 79.31279369761654
lradius 28.11216138860012
lwrist 5.391874821539774
lhand -29.47450705715962 19.075977883976805
lfingers 7.12502
lthumb -2.840688753622656 48.97335942872389
rclavicle 1.4652978397423753e-16 2.36659626658209e-16
rhumerus -26.320279555133343 -19.211553121099772 -75.93988586364384
rradius 18.12626240291369
rwrist 11.05812303405149
rhand -18.016560552641508 22.71925590762153
rfingers 7.12502
rthumb 7.6728732760583105 -7.2739543838838525
